<svg xmlns="http://www.w3.org/2000/svg" viewBox="0 0 64 64">
  <!-- Body Shadow -->
  <ellipse cx="32" cy="62" rx="16" ry="6" fill="#000" opacity="0.3"/>
  
  <!-- Legs -->
  <rect x="22" y="44" width="8" height="14" fill="#7c2d12" rx="2"/>
  <rect x="34" y="44" width="8" height="14" fill="#7c2d12" rx="2"/>
  <path d="M22 56 L30 56 L30 58 L22 58 Z" fill="#451a03"/> 
  <path d="M34 56 L42 56 L42 58 L34 58 Z" fill="#451a03"/>

  <!-- Torso -->
  <path d="M20 30 H44 V46 H20 Z" fill="#f59e0b"/>
  <!-- Vest -->
  <path d="M22 30 H42 V44 H22 Z" fill="#dc2626"/>
  <rect x="28" y="30" width="8" height="14" fill="#ef4444"/> 

  <!-- Head -->
  <circle cx="32" cy="22" r="14" fill="#fdba74"/> <!-- Tan Skin -->

  <!-- Helmet -->
  <path d="M16 22 Q16 6 32 6 Q48 6 48 22" fill="#f59e0b" stroke="#d97706" stroke-width="2"/>
  <rect x="14" y="20" width="36" height="4" rx="2" fill="#f59e0b" stroke="#d97706" stroke-width="1"/>

  <!-- Face details -->
  <circle cx="28" cy="24" r="2" fill="#1e293b"/>
  <circle cx="36" cy="24" r="2" fill="#1e293b"/>
  <path d="M30 28 Q32 30 34 28" fill="none" stroke="#be123c" stroke-width="1"/> 
  
  <!-- Clipboard -->
  <rect x="42" y="36" width="10" height="12" fill="#fff" stroke="#94a3b8" transform="rotate(-15 42 36)"/>
</svg>
