<svg xmlns="http://www.w3.org/2000/svg" viewBox="0 0 64 64">
  <!-- Body Shadow -->
  <ellipse cx="32" cy="62" rx="16" ry="6" fill="#000" opacity="0.3"/>
  
  <!-- Legs -->
  <rect x="22" y="44" width="8" height="14" fill="#14532d" rx="2"/>
  <rect x="34" y="44" width="8" height="14" fill="#14532d" rx="2"/>
  <path d="M22 56 L30 56 L30 58 L22 58 Z" fill="#052e16"/> 
  <path d="M34 56 L42 56 L42 58 L34 58 Z" fill="#052e16"/>

  <!-- Torso -->
  <path d="M20 30 H44 V46 H20 Z" fill="#22c55e"/>
  <!-- Vest -->
  <path d="M22 30 H42 V44 H22 Z" fill="#eab308"/>
  <rect x="28" y="30" width="8" height="14" fill="#facc15"/> 

  <!-- Head -->
  <circle cx="32" cy="22" r="14" fill="#fecaca"/> 

  <!-- Helmet -->
  <path d="M16 22 Q16 6 32 6 Q48 6 48 22" fill="#fff" stroke="#cbd5e1" stroke-width="2"/> <!-- White Helmet -->
  <rect x="14" y="20" width="36" height="4" rx="2" fill="#fff" stroke="#cbd5e1" stroke-width="1"/>

  <!-- Face details -->
  <circle cx="28" cy="24" r="2" fill="#1e293b"/>
  <circle cx="36" cy="24" r="2" fill="#1e293b"/>
  <path d="M30 28 Q32 30 34 28" fill="none" stroke="#be123c" stroke-width="1"/> 
  
  <!-- Tool (Wrench) -->
  <g transform="translate(10, 35) rotate(-45)">
     <rect x="0" y="0" width="4" height="12" fill="#94a3b8"/>
     <circle cx="2" cy="0" r="3" fill="#64748b"/>
  </g>
</svg>
